<svg width="127" height="54" viewBox="0 0 127 54" fill="none" xmlns="http://www.w3.org/2000/svg">
<g clip-path="url(#clip0_362_413)">
<path d="M12.1292 9.75V4.5L0 11.8737V36.75L19.9775 24.75V0L15.6966 2.25V22.5L4.2809 29.25V14.25L12.1292 9.75Z" fill="white"/>
<path d="M7.84839 22.5V16.5L12.1293 14.25V20.25L7.84839 22.5Z" fill="white"/>
<path d="M44.2359 12L24.2584 0L23.5449 14.25L39.955 24V28.5L23.5449 18.75V24.75L44.2359 36.75V21.75L28.5393 12.75V7.5L44.2359 17.25V12Z" fill="white"/>
<path d="M42.0955 40.5L30.6798 33L17.8371 40.5L22.118 43.5L30.6798 38.25L34.2472 40.5L22.118 48L10.7023 40.5L26.3989 30.75L22.118 27.75L1.427 40.5L22.118 53.25L42.0955 40.5Z" fill="white"/>
<path d="M50.6573 0V54" stroke="white"/>
<path d="M57.1928 16.5V3.89999H61.662C65.4292 3.89999 68.032 6.61799 68.032 10.164V10.2C68.032 13.746 65.4292 16.5 61.662 16.5H57.1928ZM61.662 5.91599H59.299V14.484H61.662C64.1792 14.484 65.823 12.702 65.823 10.236V10.2C65.823 7.73399 64.1792 5.91599 61.662 5.91599ZM70.7071 16.5V3.89999H72.8133V16.5H70.7071ZM81.707 16.716C77.957 16.716 75.4912 13.908 75.4912 10.236V10.2C75.4912 6.67199 78.0426 3.68399 81.6728 3.68399C83.7447 3.68399 85.0461 4.29599 86.279 5.39399L84.9434 7.06799C84.0187 6.23999 83.094 5.73599 81.5872 5.73599C79.3953 5.73599 77.7001 7.75199 77.7001 10.164V10.2C77.7001 12.792 79.3269 14.7 81.7755 14.7C82.9228 14.7 83.9331 14.322 84.6694 13.746V11.406H81.6043V9.46199H86.7071V14.754C85.5085 15.816 83.8304 16.716 81.707 16.716ZM89.5699 16.5V3.89999H91.6761V16.5H89.5699ZM97.8129 16.5V5.95199H93.9944V3.89999H103.738V5.95199H99.9191V16.5H97.8129ZM103.372 16.5L108.646 3.80999H110.598L115.872 16.5H113.646L112.431 13.458H106.763L105.53 16.5H103.372ZM107.533 11.496H111.66L109.588 6.45599L107.533 11.496ZM117.928 16.5V3.89999H120.034V14.484H126.336V16.5H117.928ZM61.388 33.18C59.5387 33.18 57.8263 32.532 56.3879 31.164L57.6551 29.58C58.8195 30.642 59.9496 31.218 61.4394 31.218C62.7408 31.218 63.5627 30.57 63.5627 29.634V29.598C63.5627 28.716 63.0833 28.194 60.8572 27.672C58.3058 27.042 56.8674 26.214 56.8674 23.91V23.874C56.8674 21.714 58.5798 20.22 60.9599 20.22C62.7237 20.22 64.0764 20.778 65.3093 21.804L64.1792 23.478C63.0833 22.632 62.0216 22.182 60.9257 22.182C59.6928 22.182 58.9736 22.83 58.9736 23.676V23.712C58.9736 24.684 59.5216 25.116 61.8332 25.692C64.3504 26.376 65.6689 27.276 65.6689 29.382V29.418C65.6689 31.794 63.9052 33.18 61.388 33.18ZM70.8398 33V22.452H67.0213V20.4H76.7646V22.452H72.946V33H70.8398ZM76.3993 33L81.6734 20.31H83.6254L88.8995 33H86.6734L85.4577 29.958H79.7898L78.5569 33H76.3993ZM80.5603 27.996H84.6871L82.6152 22.956L80.5603 27.996ZM95.7676 33.216C92.2744 33.216 89.6716 30.354 89.6716 26.736V26.7C89.6716 23.118 92.2231 20.184 95.8361 20.184C98.0622 20.184 99.3978 20.994 100.545 22.146L99.1924 23.784C98.2163 22.848 97.206 22.236 95.819 22.236C93.5587 22.236 91.8806 24.198 91.8806 26.664V26.7C91.8806 29.166 93.5416 31.164 95.8361 31.164C97.2916 31.164 98.2506 30.552 99.278 29.544L100.631 30.984C99.415 32.37 97.9937 33.216 95.7676 33.216ZM102.861 33V20.4H104.967V26.736L110.652 20.4H113.272L108.272 25.818L113.495 33H110.926L106.834 27.33L104.967 29.346V33H102.861ZM62.8778 49.716C59.1277 49.716 56.6619 46.908 56.6619 43.236V43.2C56.6619 39.672 59.2133 36.684 62.8435 36.684C64.9155 36.684 66.2169 37.296 67.4498 38.394L66.1141 40.068C65.1895 39.24 64.2648 38.736 62.7579 38.736C60.5661 38.736 58.8709 40.752 58.8709 43.164V43.2C58.8709 45.792 60.4976 47.7 62.9463 47.7C64.0936 47.7 65.1038 47.322 65.8402 46.746V44.406H62.775V42.462H67.8779V47.754C66.6792 48.816 65.0011 49.716 62.8778 49.716ZM70.6208 49.5V36.9H75.9633C77.4702 36.9 78.6518 37.368 79.4223 38.16C80.0559 38.862 80.4155 39.78 80.4155 40.878V40.914C80.4155 42.984 79.234 44.226 77.573 44.73L80.8093 49.5H78.3093L75.364 45.108H72.727V49.5H70.6208ZM72.727 43.146H75.8092C77.3161 43.146 78.275 42.336 78.275 41.04V41.004C78.275 39.636 77.3675 38.916 75.7921 38.916H72.727V43.146ZM88.7144 49.716C85.0329 49.716 82.4643 46.782 82.4643 43.236V43.2C82.4643 39.672 85.0671 36.684 88.7487 36.684C92.4303 36.684 94.9988 39.618 94.9988 43.164V43.2C94.9988 46.728 92.396 49.716 88.7144 49.716ZM88.7487 47.664C91.1289 47.664 92.7898 45.684 92.7898 43.236V43.2C92.7898 40.752 91.1117 38.736 88.7144 38.736C86.3343 38.736 84.6733 40.716 84.6733 43.164V43.2C84.6733 45.648 86.3514 47.664 88.7487 47.664ZM102.458 49.698C99.3586 49.698 97.3551 47.808 97.3551 44.154V36.9H99.4613V44.064C99.4613 46.422 100.592 47.646 102.492 47.646C104.359 47.646 105.506 46.476 105.506 44.154V36.9H107.612V44.046C107.612 47.808 105.592 49.698 102.458 49.698ZM110.503 49.5V36.9H115.229C118.038 36.9 119.784 38.574 119.784 41.112V41.148C119.784 43.956 117.644 45.45 114.99 45.45H112.61V49.5H110.503ZM112.61 43.452H115.058C116.651 43.452 117.644 42.516 117.644 41.202V41.166C117.644 39.672 116.634 38.916 115.058 38.916H112.61V43.452Z" fill="white"/>
</g>
<defs>
<clipPath id="clip0_362_413">
<rect width="127" height="54" fill="white"/>
</clipPath>
</defs>
</svg>
