<svg width="37" height="37" viewBox="0 0 37 37" fill="none" xmlns="http://www.w3.org/2000/svg">
<path fill-rule="evenodd" clip-rule="evenodd" d="M1.90266e-05 18.4992C0.000203306 14.3647 1.38538 10.3493 3.93446 7.09412C6.48354 3.83889 10.0496 1.53137 14.0635 0.539859C18.0774 -0.451655 22.3077 -0.070016 26.0793 1.62387C29.8509 3.31775 32.9464 6.22623 34.8718 9.88512C36.7971 13.544 37.4413 17.7424 36.7015 21.8102C35.9617 25.878 33.8806 29.5808 30.7903 32.3275C27.7 35.0742 23.7787 36.7066 19.6522 36.9641C15.5257 37.2216 11.4319 36.0894 8.02409 33.7481L1.78342 36.8685C1.55216 36.983 1.29078 37.0222 1.03611 36.9804C0.781428 36.9386 0.546281 36.8179 0.363786 36.6354C0.181291 36.4529 0.0606447 36.2178 0.0188391 35.9631C-0.0229665 35.7084 0.0161757 35.447 0.130752 35.2158L3.25109 28.9751C1.12863 25.8944 -0.00535696 22.2403 1.90266e-05 18.4992ZM10.434 10.0632L10.9422 9.72279C11.4562 9.38041 12.0477 9.17214 12.6629 9.11699C13.278 9.06183 13.8972 9.16154 14.4639 9.40702C15.0306 9.65249 15.5269 10.0359 15.9075 10.5224C16.288 11.0088 16.5408 11.5828 16.6426 12.1919L16.988 14.2565C17.1052 14.9599 17.0167 15.6821 16.7331 16.3363C16.4495 16.9905 15.983 17.5489 15.3896 17.9442L13.7665 19.0246C14.7612 20.7831 16.2148 22.2384 17.9722 23.2352L19.0575 21.6121C19.4526 21.0191 20.0106 20.5528 20.6643 20.2693C21.318 19.9857 22.0397 19.897 22.7427 20.0137L24.8073 20.3591C25.4164 20.4609 25.9904 20.7137 26.4768 21.0942C26.9633 21.4748 27.3467 21.971 27.5922 22.5378C27.8377 23.1045 27.9374 23.7237 27.8822 24.3388C27.8271 24.9539 27.6188 25.5455 27.2764 26.0595L26.936 26.5701C26.8243 26.7433 26.6709 26.8858 26.49 26.9845C26.309 27.0832 26.1062 27.1349 25.9 27.135H23.4334C21.6515 27.135 19.8872 26.784 18.241 26.1021C16.5949 25.4201 15.0992 24.4206 13.8394 23.1605C12.5796 21.9005 11.5803 20.4046 10.8987 18.7583C10.217 17.1121 9.86636 15.3477 9.86669 13.5659V11.0992C9.86703 10.8928 9.91915 10.6898 10.0183 10.5089C10.1174 10.3279 10.2603 10.1746 10.434 10.0632Z" fill="white"/>
</svg>
