<svg width="48" height="49" viewBox="0 0 48 49" fill="none" xmlns="http://www.w3.org/2000/svg">
<path d="M18.0004 8.5L18.0004 34.5L20.4004 31.3C20.558 31.0899 20.7554 30.9129 20.9814 30.7791C21.2074 30.6452 21.4575 30.5572 21.7175 30.5201C21.9775 30.483 22.2423 30.4974 22.4967 30.5626C22.7512 30.6278 22.9903 30.7424 23.2004 30.9C23.4488 31.0863 23.6504 31.3279 23.7892 31.6056C23.9281 31.8833 24.0004 32.1895 24.0004 32.5C24.0004 32.9327 23.86 33.3538 23.6004 33.7L17.6004 41.7C17.4137 41.9446 17.1732 42.1429 16.8974 42.2793C16.6216 42.4158 16.3181 42.4868 16.0104 42.4868C15.7027 42.4868 15.3991 42.4158 15.1234 42.2793C14.8476 42.1429 14.607 41.9446 14.4204 41.7L8.42038 33.98C8.09416 33.561 7.94777 33.0295 8.01341 32.5025C8.07904 31.9755 8.35134 31.4962 8.77038 31.17C9.18942 30.8438 9.72089 30.6974 10.2479 30.763C10.7748 30.8287 11.2542 31.101 11.5804 31.52L14.0004 34.66L14.0004 8.5C14.0004 7.96957 14.2111 7.46086 14.5862 7.08579C14.9612 6.71071 15.4699 6.5 16.0004 6.5C16.5308 6.5 17.0395 6.71071 17.4146 7.08579C17.7897 7.46086 18.0004 7.96957 18.0004 8.5Z" fill="white"/>
<path d="M32 40.5L32 14.5L29.6 17.7C29.2817 18.1243 28.808 18.4048 28.2828 18.4799C27.7577 18.5549 27.2244 18.4182 26.8 18.1C26.3757 17.7817 26.0951 17.3079 26.0201 16.7828C25.9451 16.2577 26.0817 15.7243 26.4 15.3L32.4 7.29997C32.5867 7.05535 32.8272 6.8571 33.103 6.72064C33.3788 6.58418 33.6823 6.51318 33.99 6.51318C34.2977 6.51318 34.6012 6.58418 34.877 6.72064C35.1528 6.8571 35.3934 7.05535 35.58 7.29997L41.58 15.02C41.8509 15.3691 41.9986 15.7981 42 16.24C41.9993 16.5454 41.9286 16.8466 41.7934 17.1205C41.6582 17.3944 41.462 17.6336 41.22 17.82C40.8031 18.1447 40.2745 18.2913 39.7499 18.2276C39.2252 18.1639 38.7471 17.8951 38.42 17.48L36 14.34L36 40.5C36 41.0304 35.7893 41.5391 35.4142 41.9142C35.0391 42.2893 34.5304 42.5 34 42.5C33.4696 42.5 32.9609 42.2893 32.5858 41.9142C32.2107 41.5391 32 41.0304 32 40.5Z" fill="white"/>
</svg>
