<svg width="37" height="37" viewBox="0 0 37 37" fill="none" xmlns="http://www.w3.org/2000/svg">
<path d="M37 18.5C37 28.7173 28.7173 37 18.5 37C8.28273 37 0 28.7173 0 18.5C0 8.28276 8.28273 3.05176e-05 18.5 3.05176e-05C28.7173 3.05176e-05 37 8.28276 37 18.5Z" fill="white"/>
<path d="M25.6667 12.3334C27.9667 14.6 28.8333 17.7667 28.2889 20.7223C28.7444 21.5223 29 22.4556 29 23.4445C29 24.9179 28.4147 26.331 27.3728 27.3728C26.3309 28.4147 24.9179 29 23.4444 29C22.4556 29 21.5222 28.7445 20.7222 28.2889C17.7667 28.8334 14.6 27.9667 12.3333 25.6667C10.0333 23.4 9.16667 20.2334 9.71111 17.2778C9.25556 16.4778 9 15.5445 9 14.5556C9 13.0822 9.58532 11.6691 10.6272 10.6272C11.6691 9.58535 13.0821 9.00003 14.5556 9.00003C15.5444 9.00003 16.4778 9.25559 17.2778 9.71114C20.2333 9.1667 23.4 10.0334 25.6667 12.3334ZM19.0444 24.7334C22.2333 24.7334 23.8222 23.2 23.8222 21.1334C23.8222 19.8111 23.2 18.4 20.7889 17.8556L18.5778 17.3667C17.7333 17.1778 16.7778 16.9223 16.7778 16.1334C16.7778 15.3334 17.4444 14.7778 18.6667 14.7778C21.1444 14.7778 20.9111 16.4778 22.1444 16.4778C22.7889 16.4778 23.3444 16.1 23.3444 15.4445C23.3444 13.9223 20.9111 12.7778 18.8444 12.7778C16.6111 12.7778 14.2222 13.7334 14.2222 16.2667C14.2222 17.4889 14.6556 18.7889 17.0556 19.3889L20.0444 20.1445C20.9444 20.3667 21.1667 20.8667 21.1667 21.3334C21.1667 22.0889 20.4111 22.8334 19.0444 22.8334C16.3667 22.8334 16.7333 20.7778 15.3 20.7778C14.6556 20.7778 14.1889 21.2223 14.1889 21.8556C14.1889 23.0889 15.6667 24.7334 19.0444 24.7334Z" fill="black"/>
</svg>
