<svg width="37" height="37" viewBox="0 0 37 37" fill="none" xmlns="http://www.w3.org/2000/svg">
<path d="M18.5 3.05176e-05C8.288 3.05176e-05 0 8.28803 0 18.5C0 28.712 8.288 37 18.5 37C28.712 37 37 28.712 37 18.5C37 8.28803 28.712 3.05176e-05 18.5 3.05176e-05ZM27.084 12.58C26.8065 15.503 25.604 22.607 24.9935 25.8815C24.7345 27.269 24.2165 27.7315 23.7355 27.787C22.6625 27.8795 21.8485 27.084 20.8125 26.3995C19.1845 25.3265 18.2595 24.6605 16.687 23.6245C14.8555 22.422 16.0395 21.756 17.094 20.683C17.3715 20.4055 22.1075 16.095 22.2 15.7065C22.2129 15.6477 22.2111 15.5866 22.195 15.5286C22.1789 15.4705 22.1489 15.4173 22.1075 15.3735C21.9965 15.281 21.8485 15.318 21.719 15.3365C21.5525 15.3735 18.9625 17.094 13.912 20.498C13.172 20.9975 12.506 21.2565 11.914 21.238C11.248 21.2195 9.99 20.868 9.0465 20.5535C7.881 20.1835 6.9745 19.98 7.0485 19.3325C7.0855 18.9995 7.548 18.6665 8.4175 18.315C13.8195 15.9655 17.4085 14.4115 19.203 13.6715C24.346 11.5255 25.4005 11.1555 26.1035 11.1555C26.2515 11.1555 26.603 11.1925 26.825 11.3775C27.01 11.5255 27.0655 11.729 27.084 11.877C27.0655 11.988 27.1025 12.321 27.084 12.58Z" fill="white"/>
</svg>
