<svg width="40" height="40" viewBox="0 0 40 40" fill="none" xmlns="http://www.w3.org/2000/svg">
<rect width="40" height="40" rx="20" fill="#F2F4F8"/>
<path d="M16.534 20.07C16.6569 20.0175 16.7892 19.9903 16.9228 19.9898C17.0565 19.9893 17.1889 20.0156 17.3122 20.0672C17.4355 20.1188 17.5473 20.1945 17.6408 20.29C17.7344 20.3855 17.8078 20.4988 17.8568 20.6231C17.9058 20.7475 17.9294 20.8804 17.9262 21.014C17.9229 21.1477 17.8929 21.2793 17.8379 21.4011C17.7829 21.523 17.7041 21.6325 17.606 21.7234C17.508 21.8142 17.3927 21.8845 17.267 21.93C16.5985 22.1934 16.0248 22.6519 15.6205 23.2458C15.2162 23.8397 15 24.5415 15 25.26V27C15 27.2652 15.1054 27.5196 15.2929 27.7071C15.4804 27.8946 15.7348 28 16 28H24C24.2652 28 24.5196 27.8946 24.7071 27.7071C24.8946 27.5196 25 27.2652 25 27V25.353C25.0001 24.6115 24.7749 23.8874 24.3541 23.2768C23.9334 22.6662 23.337 22.1979 22.644 21.934C22.5175 21.8901 22.4012 21.8213 22.3018 21.7316C22.2024 21.6419 22.1221 21.5332 22.0655 21.4119C22.009 21.2905 21.9773 21.1591 21.9725 21.0253C21.9677 20.8916 21.9897 20.7582 22.0374 20.6331C22.0851 20.508 22.1574 20.3938 22.25 20.2972C22.3427 20.2006 22.4538 20.1235 22.5767 20.0706C22.6997 20.0177 22.832 19.9901 22.9659 19.9893C23.0998 19.9885 23.2324 20.0146 23.356 20.066C24.4276 20.4742 25.3499 21.1983 26.0006 22.1425C26.6514 23.0867 26.9999 24.2063 27 25.353V27C27 27.7956 26.6839 28.5587 26.1213 29.1213C25.5587 29.6839 24.7956 30 24 30H16C15.2044 30 14.4413 29.6839 13.8787 29.1213C13.3161 28.5587 13 27.7956 13 27V25.26C13.0001 24.1402 13.3373 23.0463 13.9676 22.1206C14.5978 21.195 15.4921 20.4805 16.534 20.07ZM20 10C21.0609 10 22.0783 10.4214 22.8284 11.1716C23.5786 11.9217 24 12.9391 24 14V16C24 17.0609 23.5786 18.0783 22.8284 18.8284C22.0783 19.5786 21.0609 20 20 20C18.9391 20 17.9217 19.5786 17.1716 18.8284C16.4214 18.0783 16 17.0609 16 16V14C16 12.9391 16.4214 11.9217 17.1716 11.1716C17.9217 10.4214 18.9391 10 20 10V10ZM20 12C19.4696 12 18.9609 12.2107 18.5858 12.5858C18.2107 12.9609 18 13.4696 18 14V16C18 16.5304 18.2107 17.0391 18.5858 17.4142C18.9609 17.7893 19.4696 18 20 18C20.5304 18 21.0391 17.7893 21.4142 17.4142C21.7893 17.0391 22 16.5304 22 16V14C22 13.4696 21.7893 12.9609 21.4142 12.5858C21.0391 12.2107 20.5304 12 20 12Z" fill="#C1C7CD"/>
</svg>
